#!OML:ASF I:\Actors\actors\Patient Classification 2\Patient 1\Session 1\actor1.ASF
:FULLY-SPECIFIED
:DEGREES
430
root -0.46976 18.1121 5.79266 15.3157 9.85588 -3.6411
lowerback 15.7752 2.78088 6.08424
upperback -4.70867 5.14151 0.63215
thorax -13.7121 1.89844 -4.10963
lowerneck -17.4716 13.0013 9.38615
upperneck -11.6497 15.4516 -8.83841
head 0.608159 7.38195 -3.42849
rclavicle -1.94809e-014 -1.55052e-014
rhumerus -58.6845 6.82626 -93.5888
rradius 125.546
rwrist 19.2583
rhand -4.96406 -47.213
rfingers 7.12502
rthumb 20.8279 -76.1151
lclavicle -1.94809e-014 -1.55052e-014
lhumerus -46.2568 -22.2878 97.6285
lradius 122.854
lwrist -5.42346
lhand 12.572 -8.43533
lfingers 7.12502
lthumb 37.5615 17.4819
rfemur -23.829 -20.363 20.4639
rtibia 31.791
rfoot -20.9609 2.05864
rtoes -15.956
lfemur -36.7817 0.648213 -10.1747
ltibia 45.2026
lfoot -22.8723 -1.1407
ltoes -57.1644
431
root -0.46496 18.1184 5.81593 14.9928 9.90266 -3.72848
lowerback 15.603 2.73832 6.1271
upperback -4.73962 5.07969 0.614906
thorax -13.6453 1.86882 -4.12545
lowerneck -18.0135 12.9376 9.2989
upperneck -11.6812 15.2916 -9.07396
head 0.587001 7.29159 -3.20558
rclavicle 7.05686e-015 2.70347e-014
rhumerus -58.772 6.73356 -93.5899
rradius 125.496
rwrist 19.1448
rhand -3.42218 -47.7945
rfingers 7.12502
rthumb 22.3087 -76.5267
lclavicle 7.05686e-015 2.70347e-014
lhumerus -46.2955 -22.1986 97.6074
lradius 122.807
lwrist -5.46507
lhand 12.7923 -8.42334
lfingers 7.12502
lthumb 37.7696 17.4382
rfemur -23.165 -20.3832 20.4055
rtibia 31.4153
rfoot -20.8946 2.0354
rtoes -15.8977
lfemur -36.2778 0.606614 -10.0773
ltibia 45.0686
lfoot -22.9292 -1.22711
ltoes -57.1859
432
root -0.460361 18.1229 5.83779 14.6981 9.91562 -3.80695
lowerback 15.4076 2.70758 6.13755
upperback -4.76862 5.02594 0.60581
thorax -13.5645 1.84701 -4.11455
lowerneck -18.2789 12.8595 9.22055
upperneck -11.871 15.1658 -9.11596
head 0.554198 7.22493 -3.21348
rclavicle -6.11263e-014 -3.18055e-015
rhumerus -58.7957 6.62476 -93.5651
rradius 125.422
rwrist 19.1516
rhand -2.25513 -48.37
rfingers 7.12502
rthumb 23.4287 -76.9637
lclavicle -6.11263e-014 -3.18055e-015
lhumerus -46.3156 -22.1338 97.6255
lradius 122.808
lwrist -5.43465
lhand 13.0363 -8.28454
lfingers 7.12502
lthumb 38.0002 17.5146
rfemur -22.5681 -20.4 20.3464
rtibia 31.0729
rfoot -20.8337 2.01467
rtoes -15.9767
lfemur -35.8134 0.634035 -10.0127
ltibia 44.9507
lfoot -22.9672 -1.26469
ltoes -57.1123
433
root -0.457655 18.1262 5.85791 14.3887 9.92698 -3.89392
lowerback 15.2724 2.66819 6.14147
upperback -4.7975 4.96538 0.608347
thorax -13.5227 1.82091 -4.09006
lowerneck -18.2524 12.7423 9.06198
upperneck -12.1914 15.0628 -8.85387
head 0.486449 7.18056 -3.39992
rclavicle 2.96189e-014 -3.97569e-015
rhumerus -58.8721 6.62552 -93.7065
rradius 125.339
rwrist 18.6255
rhand -4.08969 -48.2379
rfingers 7.12502
rthumb 21.6678 -77.0454
lclavicle 2.96189e-014 -3.97569e-015
lhumerus -46.3083 -22.039 97.6653
lradius 122.832
lwrist -5.42487
lhand 13.2736 -8.25879
lfingers 7.12502
lthumb 38.2242 17.4791
rfemur -21.9793 -20.3987 20.2977
rtibia 30.7517
rfoot -20.7979 1.96094
rtoes -16.1672
lfemur -35.3452 0.644842 -9.93279
ltibia 44.8301
lfoot -23.0056 -1.24666
ltoes -57.1701
434
root -0.45486 18.1299 5.87648 14.0568 9.9301 -3.93931
lowerback 15.202 2.62457 6.14386
upperback -4.81918 4.89766 0.567754
thorax -13.5085 1.78757 -4.11556
lowerneck -18.5429 12.6438 8.86918
upperneck -12.2569 14.9386 -8.66078
head 0.46365 7.12056 -3.30428
rclavicle -3.53837e-014 -2.06736e-014
rhumerus -58.9777 6.65781 -94.0205
rradius 125.216
rwrist 17.5497
rhand -7.45543 -47.4776
rfingers 7.12502
rthumb 18.4328 -76.6243
lclavicle -3.53837e-014 -2.06736e-014
lhumerus -46.3076 -22.0074 97.656
lradius 122.869
lwrist -5.41728
lhand 13.2881 -8.21997
lfingers 7.12502
lthumb 38.2379 17.5141
rfemur -21.3679 -20.3968 20.1913
rtibia 30.4519
rfoot -20.7466 1.93933
rtoes -16.1484
lfemur -34.8448 0.610044 -9.88043
ltibia 44.7058
lfoot -23.0423 -1.32733
ltoes -57.0203
